<svg id="Layer_1" data-name="Layer 1" xmlns="http://www.w3.org/2000/svg" viewBox="0 0 512 512"><defs><style>.cls-1{fill:#edf0f7;}</style></defs><title>database-outline</title><path class="cls-1" d="M307.34,0H115.2a64,64,0,0,0-64,64V448a64,64,0,0,0,64,64H396.8a64,64,0,0,0,64-64V153.6ZM411.49,140.8H358.4A38.44,38.44,0,0,1,320,102.4V49.08ZM435.2,448a38.44,38.44,0,0,1-38.4,38.4H115.2A38.44,38.44,0,0,1,76.8,448V64a38.44,38.44,0,0,1,38.4-38.4H294.4v76.8a64,64,0,0,0,64,64h76.8Z"/><path class="cls-1" d="M256,243.2c-21,0-89.6,2.31-89.6,32V390.4c0,29.69,68.58,32,89.6,32s89.6-2.31,89.6-32V275.2C345.6,245.51,277,243.2,256,243.2Zm55.59,32c-10.81,3.22-29.75,6.4-55.59,6.4s-44.77-3.17-55.59-6.4c10.81-3.22,29.74-6.4,55.59-6.4S300.77,272,311.59,275.2ZM320,310.27c-6.58,3.88-28.94,9.73-64,9.73s-57.42-5.85-64-9.73V299.32c21.76,7,51.41,7.88,64,7.88s42.24-.83,64-7.88Zm0,38.4c-6.58,3.88-28.94,9.73-64,9.73s-57.42-5.85-64-9.73V337.72c21.76,7,51.41,7.88,64,7.88s42.24-.83,64-7.88ZM256,396.8c-35,0-57.41-5.84-64-9.72v-11c21.76,7,51.41,7.88,64,7.88s42.24-.83,64-7.88v11C313.41,391,291,396.8,256,396.8Z"/></svg>